<svg width="25" height="24" viewBox="0 0 25 24" fill="none" xmlns="http://www.w3.org/2000/svg">
<g id="majesticons:eye-line">
<g id="Group">
<path id="Vector" d="M12.5 5C6.193 5 3.133 10.683 2.59 11.808C2.56098 11.8678 2.5459 11.9335 2.5459 12C2.5459 12.0665 2.56098 12.1322 2.59 12.192C3.132 13.317 6.192 19 12.5 19C18.808 19 21.867 13.317 22.41 12.192C22.439 12.1322 22.4541 12.0665 22.4541 12C22.4541 11.9335 22.439 11.8678 22.41 11.808C21.868 10.683 18.808 5 12.5 5Z" stroke="black" stroke-width="2" stroke-linecap="round" stroke-linejoin="round"/>
<path id="Vector_2" d="M12.5 15C14.1569 15 15.5 13.6569 15.5 12C15.5 10.3431 14.1569 9 12.5 9C10.8431 9 9.5 10.3431 9.5 12C9.5 13.6569 10.8431 15 12.5 15Z" stroke="black" stroke-width="2" stroke-linecap="round" stroke-linejoin="round"/>
</g>
</g>
</svg>
