<svg width="25" height="24" viewBox="0 0 25 24" fill="none" xmlns="http://www.w3.org/2000/svg">
<g id="fluent:search-24-regular">
<path id="Vector" d="M3.37238 9.74055C3.37238 7.91908 4.09598 6.17221 5.384 4.88424C6.67201 3.59626 8.41894 2.87269 10.2405 2.87269C12.062 2.87269 13.8089 3.59626 15.0969 4.88424C16.385 6.17221 17.1086 7.91908 17.1086 9.74055C17.1086 11.562 16.385 13.3089 15.0969 14.5969C13.8089 15.8848 12.062 16.6084 10.2405 16.6084C8.41894 16.6084 6.67201 15.8848 5.384 14.5969C4.09598 13.3089 3.37238 11.562 3.37238 9.74055ZM10.2405 0.999634C8.84271 0.999752 7.46536 1.33505 6.22396 1.9774C4.98256 2.61976 3.91331 3.55043 3.10589 4.69136C2.29848 5.83229 1.77645 7.15021 1.5836 8.53455C1.39075 9.91889 1.5327 11.3293 1.99754 12.6475C2.46238 13.9656 3.23656 15.1531 4.25513 16.1102C5.27371 17.0674 6.50698 17.7664 7.85148 18.1485C9.19599 18.5306 10.6125 18.5847 11.9823 18.3063C13.352 18.0279 14.635 17.4251 15.7237 16.5485L22.3782 23.2016C22.464 23.2936 22.5674 23.3674 22.6823 23.4186C22.7972 23.4697 22.9212 23.4973 23.0469 23.4995C23.1727 23.5017 23.2976 23.4786 23.4142 23.4315C23.5308 23.3844 23.6368 23.3143 23.7257 23.2253C23.8146 23.1364 23.8847 23.0305 23.9318 22.9139C23.9789 22.7972 24.0021 22.6723 23.9999 22.5466C23.9976 22.4208 23.9701 22.2968 23.9189 22.1819C23.8677 22.0671 23.7939 21.9637 23.7019 21.8779L17.0486 15.2236C18.083 13.9394 18.7331 12.3887 18.9237 10.7508C19.1143 9.11279 18.8376 7.45433 18.1257 5.96691C17.4137 4.47948 16.2956 3.22378 14.9003 2.34483C13.505 1.46587 11.8895 0.999522 10.2405 0.999634Z" fill="black"/>
</g>
</svg>
