<svg width="19" height="19" viewBox="0 0 19 19" fill="none" xmlns="http://www.w3.org/2000/svg">
<g id="Union">
<path d="M18.6096 0H8.19863C7.98301 0 7.80822 0.174793 7.80822 0.390411C7.80822 1.10913 8.39086 1.69176 9.10957 1.69176H16.0068C16.7256 1.69176 17.3082 2.27441 17.3082 2.99313V9.8904C17.3082 10.6091 17.8909 11.1918 18.6096 11.1918C18.8252 11.1918 19 11.017 19 10.8014V0.390411C19 0.174793 18.8252 0 18.6096 0Z" fill="currentColor"/>
<path d="M14.7055 5.59587V12.4931C14.7055 13.2119 15.2881 13.7945 16.0068 13.7945C16.2225 13.7945 16.3973 13.6197 16.3973 13.4041V2.99315C16.3973 2.94396 16.3882 2.8969 16.3716 2.85356C16.3336 2.75438 16.2563 2.67465 16.1588 2.6334C16.1121 2.61365 16.0607 2.60272 16.0068 2.60272L5.59589 2.60274C5.38027 2.60274 5.20548 2.77753 5.20548 2.99315C5.20548 3.71187 5.78812 4.2945 6.50683 4.2945H13.4041C14.1228 4.2945 14.7055 4.87715 14.7055 5.59587Z" fill="currentColor"/>
<path d="M13.7882 5.52585C13.7831 5.49734 13.7748 5.4699 13.7638 5.44391C13.7217 5.34436 13.6395 5.26591 13.5374 5.22882C13.496 5.21382 13.4507 5.20546 13.4041 5.20546L2.99315 5.20548C2.77753 5.20548 2.60274 5.38027 2.60274 5.59589C2.60274 6.31461 3.18538 6.89724 3.90409 6.89724H10.8014C11.5201 6.89724 12.1027 7.47989 12.1027 8.19862V15.0959C12.1027 15.8146 12.6854 16.3973 13.4041 16.3973C13.6197 16.3973 13.7945 16.2225 13.7945 16.0068V5.59589C13.7945 5.57198 13.7924 5.54857 13.7882 5.52585Z" fill="currentColor"/>
<path d="M10.9395 7.83333C10.8965 7.81709 10.85 7.8082 10.8014 7.8082L0.390411 7.80822C0.174793 7.80822 0 7.98301 0 8.19863V18.6096C0 18.8252 0.174793 19 0.390411 19H10.8014C11.017 19 11.1918 18.8252 11.1918 18.6096V8.19863C11.1918 8.14472 11.1808 8.09336 11.1611 8.04665C11.1196 7.94865 11.0393 7.8711 10.9395 7.83333Z" fill="currentColor"/>
</g>
</svg>
