<svg width="35" height="35" viewBox="0 0 35 35" fill="none" xmlns="http://www.w3.org/2000/svg">
<g id="prime:upload">
<path id="Vector" d="M26.5708 30.2604H8.42915C7.92342 30.2398 7.42672 30.1196 6.96747 29.9068C6.50822 29.694 6.09544 29.3928 5.75275 29.0203C5.41006 28.6478 5.14418 28.2114 4.97032 27.736C4.79647 27.2607 4.71805 26.7557 4.73956 26.25V21.875C4.73956 21.5849 4.8548 21.3067 5.05991 21.1016C5.26503 20.8965 5.54323 20.7812 5.83331 20.7812C6.12339 20.7812 6.40159 20.8965 6.60671 21.1016C6.81183 21.3067 6.92706 21.5849 6.92706 21.875V26.25C6.88941 26.683 7.01987 27.1139 7.2914 27.4533C7.56292 27.7927 7.95467 28.0146 8.3854 28.0729H26.5708C27.0015 28.0146 27.3933 27.7927 27.6648 27.4533C27.9363 27.1139 28.0668 26.683 28.0291 26.25V21.875C28.0291 21.5849 28.1444 21.3067 28.3495 21.1016C28.5546 20.8965 28.8328 20.7812 29.1229 20.7812C29.413 20.7812 29.6912 20.8965 29.8963 21.1016C30.1014 21.3067 30.2166 21.5849 30.2166 21.875V26.25C30.2603 27.2641 29.9018 28.2544 29.219 29.0054C28.5362 29.7565 27.5845 30.2075 26.5708 30.2604ZM23.3333 12.7604C23.1896 12.7611 23.0472 12.7331 22.9145 12.678C22.7818 12.6229 22.6614 12.5418 22.5604 12.4396L17.5 7.37916L12.4396 12.4396C12.2322 12.6328 11.958 12.738 11.6746 12.733C11.3913 12.728 11.1209 12.6132 10.9205 12.4128C10.7201 12.2124 10.6053 11.942 10.6003 11.6587C10.5953 11.3753 10.7005 11.1011 10.8937 10.8937L16.7271 5.06041C16.9321 4.85559 17.2101 4.74054 17.5 4.74054C17.7898 4.74054 18.0678 4.85559 18.2729 5.06041L24.1062 10.8937C24.3111 11.0988 24.4261 11.3768 24.4261 11.6667C24.4261 11.9565 24.3111 12.2345 24.1062 12.4396C24.0052 12.5418 23.8849 12.6229 23.7521 12.678C23.6194 12.7331 23.477 12.7611 23.3333 12.7604Z" fill="currentColor"/>
<path id="Vector_2" d="M17.5 22.9687C17.2111 22.965 16.9351 22.8485 16.7308 22.6442C16.5265 22.4399 16.41 22.1639 16.4062 21.875V5.83333C16.4062 5.54325 16.5215 5.26505 16.7266 5.05993C16.9317 4.85481 17.2099 4.73958 17.5 4.73958C17.7901 4.73958 18.0683 4.85481 18.2734 5.05993C18.4785 5.26505 18.5938 5.54325 18.5938 5.83333V21.875C18.59 22.1639 18.4735 22.4399 18.2692 22.6442C18.0649 22.8485 17.7889 22.965 17.5 22.9687Z" fill="currentColor"/>
</g>
</svg>
